<svg id="icons" xmlns="http://www.w3.org/2000/svg" viewBox="0 0 128 128"><defs><style>.cls-1{fill:#ffe2b6;}.cls-2{fill:#4d5db1;}.cls-3{fill:#d3d6eb;}.cls-4{fill:#ff5987;}.cls-5{fill:#141a3a;}.cls-6{fill:#fff;}.cls-7{fill:none;stroke:#141a3a;stroke-linecap:round;stroke-linejoin:round;stroke-width:4px;}</style></defs><title>washing-machine</title><g id="_Group_" data-name="&lt;Group&gt;"><path class="cls-1" d="M97,100v6a4,4,0,0,1-4,4H35a4,4,0,0,1-4-4v-6Z"/><path class="cls-1" d="M97,18V30H31V18a4,4,0,0,1,4-4H93A4,4,0,0,1,97,18ZM64,22a3,3,0,1,0-3,3A3,3,0,0,0,64,22Z"/><path class="cls-2" d="M87,65a23,23,0,0,1-46,1.16C58.83,55.12,72.76,73.14,87,65Z"/><path class="cls-3" d="M87,65h0c-14.24,8.13-28.17-9.89-46,1.16q0-.58,0-1.17a23,23,0,0,1,46,0Z"/><path class="cls-4" d="M97,30v70H31V30ZM87,65h0a23,23,0,0,0-46,0q0,.59,0,1.17A23,23,0,0,0,87,65Z"/><circle class="cls-5" cx="61" cy="22" r="3"/><path class="cls-6" d="M37,106V18a4,4,0,0,1,4-4H35a4,4,0,0,0-4,4v88a4,4,0,0,0,4,4h6A4,4,0,0,1,37,106Z"/><line class="cls-7" x1="86" y1="110" x2="86" y2="114"/><line class="cls-7" x1="42" y1="110" x2="42" y2="114"/><path class="cls-7" d="M97,100v6a4,4,0,0,1-4,4H35a4,4,0,0,1-4-4V18a4,4,0,0,1,4-4H93a4,4,0,0,1,4,4v82Z"/><path class="cls-7" d="M87,65a23,23,0,0,1-46,1.16q0-.58,0-1.17a23,23,0,0,1,46,0"/><line class="cls-7" x1="31" y1="100" x2="97" y2="100"/><line class="cls-7" x1="31" y1="30" x2="97" y2="30"/><line class="cls-7" x1="39" y1="22" x2="50" y2="22"/><line class="cls-7" x1="71" y1="22" x2="73" y2="22"/><line class="cls-7" x1="79" y1="22" x2="81" y2="22"/><line class="cls-7" x1="87" y1="22" x2="89" y2="22"/><path class="cls-7" d="M41,66.17c17.8-11.05,31.73,7,46-1.16h0"/></g></svg>