<?xml version="1.0" standalone="no"?>
<!DOCTYPE svg PUBLIC "-//W3C//DTD SVG 20010904//EN"
 "http://www.w3.org/TR/2001/REC-SVG-20010904/DTD/svg10.dtd">
<svg version="1.0" xmlns="http://www.w3.org/2000/svg"
 width="500.000000pt" height="500.000000pt" viewBox="0 0 500.000000 500.000000"
 preserveAspectRatio="xMidYMid meet">

<g transform="translate(0.000000,500.000000) scale(0.100000,-0.100000)"
fill="#000000" stroke="none">
<path d="M1007 4557 c-66 -59 -69 -64 -71 -112 -2 -27 -6 -108 -11 -180 l-7
-130 77 -90 c122 -141 582 -705 600 -734 6 -10 -3 -8 -26 6 -19 11 -243 141
-499 288 -256 147 -501 289 -546 315 l-81 48 -51 -40 c-42 -33 -51 -45 -46
-63 3 -12 -4 -75 -16 -140 -21 -114 -21 -119 -3 -136 44 -42 2169 -1841 2181
-1846 8 -3 39 19 73 53 53 53 74 63 50 25 -10 -15 18 -83 39 -96 6 -4 1 -24
-14 -53 l-24 -47 635 -560 c349 -308 643 -566 655 -574 18 -13 22 -13 37 5 9
11 43 43 75 70 59 48 170 205 204 284 14 34 13 123 -3 161 -5 14 7 17 85 21
l92 6 60 58 c55 54 126 152 201 279 l29 49 -25 22 c-14 12 -309 273 -657 580
-347 308 -641 565 -651 573 -18 13 -24 10 -68 -33 -45 -44 -50 -47 -71 -34
-19 11 -21 19 -16 61 3 27 12 62 21 80 15 30 15 32 -12 58 -69 66 -2126 1881
-2136 1884 -7 3 -43 -23 -80 -58z m1078 -1401 c-17 -7 -43 -28 -58 -45 -15
-18 -27 -29 -27 -24 1 25 71 83 100 83 8 -1 1 -7 -15 -14z m232 -114 c3 -14
33 -82 66 -151 112 -238 139 -296 204 -441 36 -80 86 -197 111 -260 39 -100
45 -125 46 -195 1 -86 -9 -188 -20 -206 -16 -26 -23 11 -13 66 6 32 9 102 7
154 -3 91 -6 103 -65 241 -51 122 -155 354 -291 649 l-29 64 -24 -43 c-34 -61
-67 -82 -127 -82 -27 0 -58 5 -68 11 -17 10 -16 11 7 5 70 -15 163 48 180 123
8 38 0 89 -18 117 -4 7 0 3 10 -7 9 -11 20 -31 24 -45z m1033 -546 c0 -2 -8
-10 -17 -17 -16 -13 -17 -12 -4 4 13 16 21 21 21 13z"/>
</g>
</svg>
