<!-- Generated by IcoMoon.io -->
<svg version="1.1" xmlns="http://www.w3.org/2000/svg" width="32" height="32" viewBox="0 0 32 32">
<title>business</title>
<path d="M16 9.333v-2.667c0-1.467-1.2-2.667-2.667-2.667h-8c-1.467 0-2.667 1.2-2.667 2.667v18.667c0 1.467 1.2 2.667 2.667 2.667h21.333c1.467 0 2.667-1.2 2.667-2.667v-13.333c0-1.467-1.2-2.667-2.667-2.667h-10.667zM8 25.333h-2.667v-2.667h2.667v2.667zM8 20h-2.667v-2.667h2.667v2.667zM8 14.667h-2.667v-2.667h2.667v2.667zM8 9.333h-2.667v-2.667h2.667v2.667zM13.333 25.333h-2.667v-2.667h2.667v2.667zM13.333 20h-2.667v-2.667h2.667v2.667zM13.333 14.667h-2.667v-2.667h2.667v2.667zM13.333 9.333h-2.667v-2.667h2.667v2.667zM25.333 25.333h-9.333v-2.667h2.667v-2.667h-2.667v-2.667h2.667v-2.667h-2.667v-2.667h9.333c0.733 0 1.333 0.6 1.333 1.333v10.667c0 0.733-0.6 1.333-1.333 1.333zM24 14.667h-2.667v2.667h2.667v-2.667zM24 20h-2.667v2.667h2.667v-2.667z"></path>
</svg>
