<!-- Generated by IcoMoon.io -->
<svg version="1.1" xmlns="http://www.w3.org/2000/svg" width="32" height="32" viewBox="0 0 32 32">
<title>calendar_today</title>
<path d="M26.667 4h-1.333v-1.333c0-0.733-0.6-1.333-1.333-1.333s-1.333 0.6-1.333 1.333v1.333h-13.333v-1.333c0-0.733-0.6-1.333-1.333-1.333s-1.333 0.6-1.333 1.333v1.333h-1.333c-1.467 0-2.667 1.2-2.667 2.667v21.333c0 1.467 1.2 2.667 2.667 2.667h21.333c1.467 0 2.667-1.2 2.667-2.667v-21.333c0-1.467-1.2-2.667-2.667-2.667zM25.333 28h-18.667c-0.733 0-1.333-0.6-1.333-1.333v-16h21.333v16c0 0.733-0.6 1.333-1.333 1.333z"></path>
</svg>
