<!-- Generated by IcoMoon.io -->
<svg version="1.1" xmlns="http://www.w3.org/2000/svg" width="32" height="32" viewBox="0 0 32 32">
<title>groups</title>
<path d="M16 17c2.173 0 4.093 0.52 5.653 1.2 1.44 0.64 2.347 2.080 2.347 3.64v0.827c0 0.733-0.6 1.333-1.333 1.333h-13.333c-0.733 0-1.333-0.6-1.333-1.333v-0.813c0-1.573 0.907-3.013 2.347-3.64 1.56-0.693 3.48-1.213 5.653-1.213zM5.333 17.333c1.467 0 2.667-1.2 2.667-2.667s-1.2-2.667-2.667-2.667-2.667 1.2-2.667 2.667c0 1.467 1.2 2.667 2.667 2.667zM6.84 18.8c-0.493-0.080-0.987-0.133-1.507-0.133-1.32 0-2.573 0.28-3.707 0.773-0.987 0.427-1.627 1.387-1.627 2.467v0.76c0 0.733 0.6 1.333 1.333 1.333h4.667v-2.147c0-1.107 0.307-2.147 0.84-3.053zM26.667 17.333c1.467 0 2.667-1.2 2.667-2.667s-1.2-2.667-2.667-2.667-2.667 1.2-2.667 2.667c0 1.467 1.2 2.667 2.667 2.667zM32 21.907c0-1.080-0.64-2.040-1.627-2.467-1.133-0.493-2.387-0.773-3.707-0.773-0.52 0-1.013 0.053-1.507 0.133 0.533 0.907 0.84 1.947 0.84 3.053v2.147h4.667c0.733 0 1.333-0.6 1.333-1.333v-0.76zM16 8c2.213 0 4 1.787 4 4s-1.787 4-4 4-4-1.787-4-4c0-2.213 1.787-4 4-4z"></path>
</svg>
