<!-- Generated by IcoMoon.io -->
<svg version="1.1" xmlns="http://www.w3.org/2000/svg" width="32" height="32" viewBox="0 0 32 32">
<title>leaderboard</title>
<path d="M8.667 28h-4.667c-0.733 0-1.333-0.6-1.333-1.333v-13.333c0-0.733 0.6-1.333 1.333-1.333h4.667c0.733 0 1.333 0.6 1.333 1.333v13.333c0 0.733-0.6 1.333-1.333 1.333zM18.333 4h-4.667c-0.733 0-1.333 0.6-1.333 1.333v21.333c0 0.733 0.6 1.333 1.333 1.333h4.667c0.733 0 1.333-0.6 1.333-1.333v-21.333c0-0.733-0.6-1.333-1.333-1.333zM28 14.667h-4.667c-0.733 0-1.333 0.6-1.333 1.333v10.667c0 0.733 0.6 1.333 1.333 1.333h4.667c0.733 0 1.333-0.6 1.333-1.333v-10.667c0-0.733-0.6-1.333-1.333-1.333z"></path>
</svg>
