<!-- Generated by IcoMoon.io -->
<svg version="1.1" xmlns="http://www.w3.org/2000/svg" width="32" height="32" viewBox="0 0 32 32">
<title>logout</title>
<path d="M6.667 6.667h8c0.733 0 1.333-0.6 1.333-1.333v0c0-0.733-0.6-1.333-1.333-1.333h-8c-1.467 0-2.667 1.2-2.667 2.667v18.667c0 1.467 1.2 2.667 2.667 2.667h8c0.733 0 1.333-0.6 1.333-1.333v0c0-0.733-0.6-1.333-1.333-1.333h-8v-18.667z"></path>
<path d="M27.533 15.533l-3.72-3.72c-0.427-0.427-1.147-0.133-1.147 0.467v2.387h-9.333c-0.733 0-1.333 0.6-1.333 1.333v0c0 0.733 0.6 1.333 1.333 1.333h9.333v2.387c0 0.6 0.72 0.893 1.133 0.467l3.72-3.72c0.267-0.253 0.267-0.68 0.013-0.933z"></path>
</svg>
