<!-- Generated by IcoMoon.io -->
<svg version="1.1" xmlns="http://www.w3.org/2000/svg" width="32" height="32" viewBox="0 0 32 32">
<title>orders</title>
<path d="M18.667 12h-5.333c-0.733 0-1.333-0.6-1.333-1.333v0c0-0.733 0.6-1.333 1.333-1.333h5.333c0.733 0 1.333 0.6 1.333 1.333v0c0 0.733-0.6 1.333-1.333 1.333z"></path>
<path d="M18.667 16h-5.333c-0.733 0-1.333-0.6-1.333-1.333v0c0-0.733 0.6-1.333 1.333-1.333h5.333c0.733 0 1.333 0.6 1.333 1.333v0c0 0.733-0.6 1.333-1.333 1.333z"></path>
<path d="M26 4.667l-2-2-2 2-2-2-2 2-2-2-2 2-2-2-2 2-2-2v18.667h-2.667c-0.733 0-1.333 0.6-1.333 1.333v2.667c0 2.213 1.787 4 4 4h16c2.213 0 4-1.787 4-4v-22.667l-2 2zM20 26.667h-12c-0.733 0-1.333-0.6-1.333-1.333v-1.333h13.333v2.667zM25.333 25.333c0 0.733-0.6 1.333-1.333 1.333s-1.333-0.6-1.333-1.333v-2.667c0-0.733-0.6-1.333-1.333-1.333h-10.667v-14.667h14.667v18.667z"></path>
<path d="M24 10.667c0 0.736-0.597 1.333-1.333 1.333s-1.333-0.597-1.333-1.333c0-0.736 0.597-1.333 1.333-1.333s1.333 0.597 1.333 1.333z"></path>
<path d="M24 14.667c0 0.736-0.597 1.333-1.333 1.333s-1.333-0.597-1.333-1.333c0-0.736 0.597-1.333 1.333-1.333s1.333 0.597 1.333 1.333z"></path>
</svg>
