<!-- Generated by IcoMoon.io -->
<svg version="1.1" xmlns="http://www.w3.org/2000/svg" width="32" height="32" viewBox="0 0 32 32">
<title>palette</title>
<path d="M16 29.333c-7.347 0-13.333-5.987-13.333-13.333s5.987-13.333 13.333-13.333 13.333 5.387 13.333 12c0 4.413-3.587 8-8 8h-2.36c-0.373 0-0.667 0.293-0.667 0.667 0 0.16 0.067 0.307 0.173 0.44 0.547 0.627 0.853 1.413 0.853 2.227 0 1.84-1.493 3.333-3.333 3.333zM16 5.333c-5.88 0-10.667 4.787-10.667 10.667s4.787 10.667 10.667 10.667c0.373 0 0.667-0.293 0.667-0.667 0-0.213-0.107-0.373-0.187-0.467-0.547-0.613-0.84-1.4-0.84-2.2 0-1.84 1.493-3.333 3.333-3.333h2.36c2.947 0 5.333-2.387 5.333-5.333 0-5.147-4.787-9.333-10.667-9.333z"></path>
<path d="M10.667 15.333c0 1.105-0.895 2-2 2s-2-0.895-2-2c0-1.105 0.895-2 2-2s2 0.895 2 2z"></path>
<path d="M14.667 10c0 1.105-0.895 2-2 2s-2-0.895-2-2c0-1.105 0.895-2 2-2s2 0.895 2 2z"></path>
<path d="M21.333 10c0 1.105-0.895 2-2 2s-2-0.895-2-2c0-1.105 0.895-2 2-2s2 0.895 2 2z"></path>
<path d="M25.333 15.333c0 1.105-0.895 2-2 2s-2-0.895-2-2c0-1.105 0.895-2 2-2s2 0.895 2 2z"></path>
</svg>
