<!-- Generated by IcoMoon.io -->
<svg version="1.1" xmlns="http://www.w3.org/2000/svg" width="32" height="32" viewBox="0 0 32 32">
<title>pending_actions</title>
<path d="M24 4h-4.24c-0.56-1.547-2.027-2.667-3.76-2.667s-3.2 1.12-3.76 2.667h-4.24c-1.467 0-2.667 1.2-2.667 2.667v20c0 1.467 1.2 2.667 2.667 2.667h8.147c-0.787-0.76-1.427-1.667-1.893-2.667h-6.253v-20h2.667v1.333c0 1.467 1.2 2.667 2.667 2.667h5.333c1.467 0 2.667-1.2 2.667-2.667v-1.333h2.667v6.773c0.947 0.133 1.84 0.413 2.667 0.8v-7.573c0-1.467-1.2-2.667-2.667-2.667zM16 6.667c-0.733 0-1.333-0.6-1.333-1.333s0.6-1.333 1.333-1.333c0.733 0 1.333 0.6 1.333 1.333s-0.6 1.333-1.333 1.333zM22.667 16c-3.68 0-6.667 2.987-6.667 6.667s2.987 6.667 6.667 6.667c3.68 0 6.667-2.987 6.667-6.667s-2.987-6.667-6.667-6.667zM24.387 25.333l-2.2-2.2c-0.12-0.12-0.2-0.293-0.2-0.467v-3.32c0-0.373 0.293-0.667 0.667-0.667v0c0.373 0 0.667 0.293 0.667 0.667v3.053l2 2c0.267 0.267 0.267 0.68 0 0.947v0c-0.253 0.253-0.667 0.253-0.933-0.013z"></path>
</svg>
