<!-- Generated by IcoMoon.io -->
<svg version="1.1" xmlns="http://www.w3.org/2000/svg" width="32" height="32" viewBox="0 0 32 32">
<title>settings</title>
<path d="M26 16c0-0.307-0.013-0.6-0.040-0.907l2.48-1.88c0.533-0.4 0.68-1.147 0.347-1.733l-2.493-4.307c-0.333-0.587-1.053-0.827-1.667-0.56l-2.867 1.213c-0.493-0.347-1.013-0.653-1.56-0.907l-0.387-3.080c-0.080-0.667-0.653-1.173-1.32-1.173h-4.973c-0.68 0-1.253 0.507-1.333 1.173l-0.387 3.080c-0.547 0.253-1.067 0.56-1.56 0.907l-2.867-1.213c-0.613-0.267-1.333-0.027-1.667 0.56l-2.493 4.32c-0.333 0.587-0.187 1.32 0.347 1.733l2.48 1.88c-0.027 0.293-0.040 0.587-0.040 0.893s0.013 0.6 0.040 0.907l-2.48 1.88c-0.533 0.4-0.68 1.147-0.347 1.733l2.493 4.307c0.333 0.587 1.053 0.827 1.667 0.56l2.867-1.213c0.493 0.347 1.013 0.653 1.56 0.907l0.387 3.080c0.080 0.667 0.653 1.173 1.32 1.173h4.973c0.667 0 1.24-0.507 1.32-1.173l0.387-3.080c0.547-0.253 1.067-0.56 1.56-0.907l2.867 1.213c0.613 0.267 1.333 0.027 1.667-0.56l2.493-4.307c0.333-0.587 0.187-1.32-0.347-1.733l-2.48-1.88c0.040-0.307 0.053-0.6 0.053-0.907zM16.053 20.667c-2.573 0-4.667-2.093-4.667-4.667s2.093-4.667 4.667-4.667 4.667 2.093 4.667 4.667-2.093 4.667-4.667 4.667z"></path>
</svg>
