<!-- Generated by IcoMoon.io -->
<svg version="1.1" xmlns="http://www.w3.org/2000/svg" width="32" height="32" viewBox="0 0 32 32">
<title>shopping_cart</title>
<path d="M20.733 17.333c1 0 1.88-0.547 2.333-1.373l4.773-8.653c0.493-0.88-0.147-1.973-1.16-1.973h-19.733l-1.253-2.667h-4.36v2.667h2.667l4.8 10.12-1.8 3.253c-0.973 1.787 0.307 3.96 2.333 3.96h16v-2.667h-16l1.467-2.667h9.933zM8.213 8h16.2l-3.68 6.667h-9.36l-3.16-6.667zM9.333 24c-1.467 0-2.653 1.2-2.653 2.667s1.187 2.667 2.653 2.667 2.667-1.2 2.667-2.667-1.2-2.667-2.667-2.667zM22.667 24c-1.467 0-2.653 1.2-2.653 2.667s1.187 2.667 2.653 2.667 2.667-1.2 2.667-2.667-1.2-2.667-2.667-2.667z"></path>
</svg>
