<!-- Generated by IcoMoon.io -->
<svg version="1.1" xmlns="http://www.w3.org/2000/svg" width="32" height="32" viewBox="0 0 32 32">
<title>shopping_cart</title>
<path d="M9.333 24c-1.467 0-2.653 1.2-2.653 2.667s1.187 2.667 2.653 2.667 2.667-1.2 2.667-2.667-1.2-2.667-2.667-2.667zM1.333 4c0 0.733 0.6 1.333 1.333 1.333h1.333l4.8 10.12-1.8 3.253c-0.973 1.787 0.307 3.96 2.333 3.96h14.667c0.733 0 1.333-0.6 1.333-1.333s-0.6-1.333-1.333-1.333h-14.667l1.467-2.667h9.933c1 0 1.88-0.547 2.333-1.373l4.773-8.653c0.493-0.88-0.147-1.973-1.16-1.973h-19.733l-0.893-1.907c-0.213-0.467-0.693-0.76-1.2-0.76h-2.187c-0.733 0-1.333 0.6-1.333 1.333zM22.667 24c-1.467 0-2.653 1.2-2.653 2.667s1.187 2.667 2.653 2.667 2.667-1.2 2.667-2.667-1.2-2.667-2.667-2.667z"></path>
</svg>
