<!-- Generated by IcoMoon.io -->
<svg version="1.1" xmlns="http://www.w3.org/2000/svg" width="32" height="32" viewBox="0 0 32 32">
<title>storefront</title>
<path d="M29.2 10.52l-1.4-4.493c-0.293-1.2-1.333-2.027-2.547-2.027h-18.52c-1.2 0-2.253 0.84-2.533 2.027l-1.4 4.493c-0.613 2.627 1.133 4.147 1.2 4.227v10.587c0 1.467 1.2 2.667 2.667 2.667h18.667c1.467 0 2.667-1.2 2.667-2.667v-10.587c1.493-1.493 1.453-3.213 1.2-4.227zM17.333 6.667h2.613l0.72 4.693c0.12 0.947-0.52 1.973-1.707 1.973-0.893 0-1.627-0.787-1.627-1.747v-4.92zM8.587 11.813c-0.107 0.867-0.8 1.52-1.613 1.52-1.24 0-1.8-1.293-1.587-2.187l1.347-4.48h2.627l-0.773 5.147zM14.667 11.587c0 0.96-0.733 1.747-1.72 1.747-1 0-1.733-0.933-1.627-1.973l0.733-4.693h2.613v4.92zM25.027 13.333c-0.813 0-1.52-0.653-1.613-1.52l-0.773-5.147 2.573-0.013 1.4 4.493c0.213 0.893-0.333 2.187-1.587 2.187z"></path>
</svg>
