<!-- Generated by IcoMoon.io -->
<svg version="1.1" xmlns="http://www.w3.org/2000/svg" width="32" height="32" viewBox="0 0 32 32">
<title>visibility_off</title>
<path d="M16 8.667c3.68 0 6.667 2.987 6.667 6.667 0 0.68-0.133 1.333-0.32 1.947l4.080 4.080c1.853-1.64 3.32-3.693 4.24-6.040-2.307-5.84-8-9.987-14.667-9.987-1.693 0-3.32 0.267-4.853 0.76l2.893 2.893c0.627-0.187 1.28-0.32 1.96-0.32zM3.613 4.213c-0.52 0.52-0.52 1.36 0 1.88l2.627 2.627c-2.16 1.72-3.88 3.987-4.907 6.613 2.307 5.853 8 10 14.667 10 2.027 0 3.96-0.4 5.747-1.093l3.627 3.627c0.52 0.52 1.36 0.52 1.88 0s0.52-1.36 0-1.88l-21.747-21.773c-0.52-0.52-1.373-0.52-1.893 0zM16 22c-3.68 0-6.667-2.987-6.667-6.667 0-1.027 0.24-2 0.653-2.853l2.093 2.093c-0.040 0.24-0.080 0.493-0.080 0.76 0 2.213 1.787 4 4 4 0.267 0 0.507-0.040 0.76-0.093l2.093 2.093c-0.867 0.427-1.827 0.667-2.853 0.667zM19.96 14.893c-0.2-1.867-1.667-3.32-3.52-3.52l3.52 3.52z"></path>
</svg>
