<svg aria-hidden="true" style="position: absolute; width: 0; height: 0; overflow: hidden;" version="1.1" xmlns="http://www.w3.org/2000/svg" xmlns:xlink="http://www.w3.org/1999/xlink">
<defs>
<symbol id="icon-pending_actions" viewBox="0 0 32 32">
<path d="M24 4h-4.24c-0.56-1.547-2.027-2.667-3.76-2.667s-3.2 1.12-3.76 2.667h-4.24c-1.467 0-2.667 1.2-2.667 2.667v20c0 1.467 1.2 2.667 2.667 2.667h8.147c-0.787-0.76-1.427-1.667-1.893-2.667h-6.253v-20h2.667v1.333c0 1.467 1.2 2.667 2.667 2.667h5.333c1.467 0 2.667-1.2 2.667-2.667v-1.333h2.667v6.773c0.947 0.133 1.84 0.413 2.667 0.8v-7.573c0-1.467-1.2-2.667-2.667-2.667zM16 6.667c-0.733 0-1.333-0.6-1.333-1.333s0.6-1.333 1.333-1.333c0.733 0 1.333 0.6 1.333 1.333s-0.6 1.333-1.333 1.333zM22.667 16c-3.68 0-6.667 2.987-6.667 6.667s2.987 6.667 6.667 6.667c3.68 0 6.667-2.987 6.667-6.667s-2.987-6.667-6.667-6.667zM24.387 25.333l-2.2-2.2c-0.12-0.12-0.2-0.293-0.2-0.467v-3.32c0-0.373 0.293-0.667 0.667-0.667v0c0.373 0 0.667 0.293 0.667 0.667v3.053l2 2c0.267 0.267 0.267 0.68 0 0.947v0c-0.253 0.253-0.667 0.253-0.933-0.013z"></path>
</symbol>
<symbol id="icon-notifications" viewBox="0 0 32 32">
<path d="M16 29.333c1.467 0 2.667-1.2 2.667-2.667h-5.333c0 1.467 1.187 2.667 2.667 2.667zM24 21.333v-6.667c0-4.093-2.187-7.52-6-8.427v-0.907c0-1.107-0.893-2-2-2s-2 0.893-2 2v0.907c-3.827 0.907-6 4.32-6 8.427v6.667l-1.72 1.72c-0.84 0.84-0.253 2.28 0.933 2.28h17.56c1.187 0 1.787-1.44 0.947-2.28l-1.72-1.72z"></path>
</symbol>
<symbol id="icon-business" viewBox="0 0 32 32">
<path d="M16 9.333v-2.667c0-1.467-1.2-2.667-2.667-2.667h-8c-1.467 0-2.667 1.2-2.667 2.667v18.667c0 1.467 1.2 2.667 2.667 2.667h21.333c1.467 0 2.667-1.2 2.667-2.667v-13.333c0-1.467-1.2-2.667-2.667-2.667h-10.667zM8 25.333h-2.667v-2.667h2.667v2.667zM8 20h-2.667v-2.667h2.667v2.667zM8 14.667h-2.667v-2.667h2.667v2.667zM8 9.333h-2.667v-2.667h2.667v2.667zM13.333 25.333h-2.667v-2.667h2.667v2.667zM13.333 20h-2.667v-2.667h2.667v2.667zM13.333 14.667h-2.667v-2.667h2.667v2.667zM13.333 9.333h-2.667v-2.667h2.667v2.667zM25.333 25.333h-9.333v-2.667h2.667v-2.667h-2.667v-2.667h2.667v-2.667h-2.667v-2.667h9.333c0.733 0 1.333 0.6 1.333 1.333v10.667c0 0.733-0.6 1.333-1.333 1.333zM24 14.667h-2.667v2.667h2.667v-2.667zM24 20h-2.667v2.667h2.667v-2.667z"></path>
</symbol>
<symbol id="icon-shopping_cart" viewBox="0 0 32 32">
<path d="M9.333 24c-1.467 0-2.653 1.2-2.653 2.667s1.187 2.667 2.653 2.667 2.667-1.2 2.667-2.667-1.2-2.667-2.667-2.667zM1.333 4c0 0.733 0.6 1.333 1.333 1.333h1.333l4.8 10.12-1.8 3.253c-0.973 1.787 0.307 3.96 2.333 3.96h14.667c0.733 0 1.333-0.6 1.333-1.333s-0.6-1.333-1.333-1.333h-14.667l1.467-2.667h9.933c1 0 1.88-0.547 2.333-1.373l4.773-8.653c0.493-0.88-0.147-1.973-1.16-1.973h-19.733l-0.893-1.907c-0.213-0.467-0.693-0.76-1.2-0.76h-2.187c-0.733 0-1.333 0.6-1.333 1.333zM22.667 24c-1.467 0-2.653 1.2-2.653 2.667s1.187 2.667 2.653 2.667 2.667-1.2 2.667-2.667-1.2-2.667-2.667-2.667z"></path>
</symbol>
<symbol id="icon-calendar_today" viewBox="0 0 32 32">
<path d="M26.667 4h-1.333v-1.333c0-0.733-0.6-1.333-1.333-1.333s-1.333 0.6-1.333 1.333v1.333h-13.333v-1.333c0-0.733-0.6-1.333-1.333-1.333s-1.333 0.6-1.333 1.333v1.333h-1.333c-1.467 0-2.667 1.2-2.667 2.667v21.333c0 1.467 1.2 2.667 2.667 2.667h21.333c1.467 0 2.667-1.2 2.667-2.667v-21.333c0-1.467-1.2-2.667-2.667-2.667zM25.333 28h-18.667c-0.733 0-1.333-0.6-1.333-1.333v-16h21.333v16c0 0.733-0.6 1.333-1.333 1.333z"></path>
</symbol>
<symbol id="icon-visibility" viewBox="0 0 32 32">
<path d="M16 5.333c-6.667 0-12.36 4.147-14.667 10 2.307 5.853 8 10 14.667 10s12.36-4.147 14.667-10c-2.307-5.853-8-10-14.667-10zM16 22c-3.68 0-6.667-2.987-6.667-6.667s2.987-6.667 6.667-6.667 6.667 2.987 6.667 6.667-2.987 6.667-6.667 6.667zM16 11.333c-2.213 0-4 1.787-4 4s1.787 4 4 4 4-1.787 4-4-1.787-4-4-4z"></path>
</symbol>
<symbol id="icon-visibility_off" viewBox="0 0 32 32">
<path d="M16 8.667c3.68 0 6.667 2.987 6.667 6.667 0 0.68-0.133 1.333-0.32 1.947l4.080 4.080c1.853-1.64 3.32-3.693 4.24-6.040-2.307-5.84-8-9.987-14.667-9.987-1.693 0-3.32 0.267-4.853 0.76l2.893 2.893c0.627-0.187 1.28-0.32 1.96-0.32zM3.613 4.213c-0.52 0.52-0.52 1.36 0 1.88l2.627 2.627c-2.16 1.72-3.88 3.987-4.907 6.613 2.307 5.853 8 10 14.667 10 2.027 0 3.96-0.4 5.747-1.093l3.627 3.627c0.52 0.52 1.36 0.52 1.88 0s0.52-1.36 0-1.88l-21.747-21.773c-0.52-0.52-1.373-0.52-1.893 0zM16 22c-3.68 0-6.667-2.987-6.667-6.667 0-1.027 0.24-2 0.653-2.853l2.093 2.093c-0.040 0.24-0.080 0.493-0.080 0.76 0 2.213 1.787 4 4 4 0.267 0 0.507-0.040 0.76-0.093l2.093 2.093c-0.867 0.427-1.827 0.667-2.853 0.667zM19.96 14.893c-0.2-1.867-1.667-3.32-3.52-3.52l3.52 3.52z"></path>
</symbol>
<symbol id="icon-logout" viewBox="0 0 32 32">
<path d="M6.667 6.667h8c0.733 0 1.333-0.6 1.333-1.333v0c0-0.733-0.6-1.333-1.333-1.333h-8c-1.467 0-2.667 1.2-2.667 2.667v18.667c0 1.467 1.2 2.667 2.667 2.667h8c0.733 0 1.333-0.6 1.333-1.333v0c0-0.733-0.6-1.333-1.333-1.333h-8v-18.667z"></path>
<path d="M27.533 15.533l-3.72-3.72c-0.427-0.427-1.147-0.133-1.147 0.467v2.387h-9.333c-0.733 0-1.333 0.6-1.333 1.333v0c0 0.733 0.6 1.333 1.333 1.333h9.333v2.387c0 0.6 0.72 0.893 1.133 0.467l3.72-3.72c0.267-0.253 0.267-0.68 0.013-0.933z"></path>
</symbol>
<symbol id="icon-search" viewBox="0 0 32 32">
<path d="M20.667 18.667h-1.053l-0.373-0.36c1.6-1.867 2.427-4.413 1.973-7.12-0.627-3.707-3.72-6.667-7.453-7.12-5.64-0.693-10.387 4.053-9.693 9.693 0.453 3.733 3.413 6.827 7.12 7.453 2.707 0.453 5.253-0.373 7.12-1.973l0.36 0.373v1.053l5.667 5.667c0.547 0.547 1.44 0.547 1.987 0s0.547-1.44 0-1.987l-5.653-5.68zM12.667 18.667c-3.32 0-6-2.68-6-6s2.68-6 6-6 6 2.68 6 6-2.68 6-6 6z"></path>
</symbol>
<symbol id="icon-settings" viewBox="0 0 32 32">
<path d="M26 16c0-0.307-0.013-0.6-0.040-0.907l2.48-1.88c0.533-0.4 0.68-1.147 0.347-1.733l-2.493-4.307c-0.333-0.587-1.053-0.827-1.667-0.56l-2.867 1.213c-0.493-0.347-1.013-0.653-1.56-0.907l-0.387-3.080c-0.080-0.667-0.653-1.173-1.32-1.173h-4.973c-0.68 0-1.253 0.507-1.333 1.173l-0.387 3.080c-0.547 0.253-1.067 0.56-1.56 0.907l-2.867-1.213c-0.613-0.267-1.333-0.027-1.667 0.56l-2.493 4.32c-0.333 0.587-0.187 1.32 0.347 1.733l2.48 1.88c-0.027 0.293-0.040 0.587-0.040 0.893s0.013 0.6 0.040 0.907l-2.48 1.88c-0.533 0.4-0.68 1.147-0.347 1.733l2.493 4.307c0.333 0.587 1.053 0.827 1.667 0.56l2.867-1.213c0.493 0.347 1.013 0.653 1.56 0.907l0.387 3.080c0.080 0.667 0.653 1.173 1.32 1.173h4.973c0.667 0 1.24-0.507 1.32-1.173l0.387-3.080c0.547-0.253 1.067-0.56 1.56-0.907l2.867 1.213c0.613 0.267 1.333 0.027 1.667-0.56l2.493-4.307c0.333-0.587 0.187-1.32-0.347-1.733l-2.48-1.88c0.040-0.307 0.053-0.6 0.053-0.907zM16.053 20.667c-2.573 0-4.667-2.093-4.667-4.667s2.093-4.667 4.667-4.667 4.667 2.093 4.667 4.667-2.093 4.667-4.667 4.667z"></path>
</symbol>
<symbol id="icon-home" viewBox="0 0 32 32">
<path d="M13.333 25.333v-6.667h5.333v6.667c0 0.733 0.6 1.333 1.333 1.333h4c0.733 0 1.333-0.6 1.333-1.333v-9.333h2.267c0.613 0 0.907-0.76 0.44-1.16l-11.147-10.040c-0.507-0.453-1.28-0.453-1.787 0l-11.147 10.040c-0.453 0.4-0.173 1.16 0.44 1.16h2.267v9.333c0 0.733 0.6 1.333 1.333 1.333h4c0.733 0 1.333-0.6 1.333-1.333z"></path>
</symbol>
<symbol id="icon-work" viewBox="0 0 32 32">
<path d="M26.667 8h-5.333v-2.667c0-1.48-1.187-2.667-2.667-2.667h-5.333c-1.48 0-2.667 1.187-2.667 2.667v2.667h-5.333c-1.48 0-2.653 1.187-2.653 2.667l-0.013 14.667c0 1.48 1.187 2.667 2.667 2.667h21.333c1.48 0 2.667-1.187 2.667-2.667v-14.667c0-1.48-1.187-2.667-2.667-2.667zM18.667 8h-5.333v-2.667h5.333v2.667z"></path>
</symbol>
<symbol id="icon-person" viewBox="0 0 32 32">
<path d="M16 16c2.947 0 5.333-2.387 5.333-5.333s-2.387-5.333-5.333-5.333-5.333 2.387-5.333 5.333 2.387 5.333 5.333 5.333zM16 18.667c-3.56 0-10.667 1.787-10.667 5.333v1.333c0 0.733 0.6 1.333 1.333 1.333h18.667c0.733 0 1.333-0.6 1.333-1.333v-1.333c0-3.547-7.107-5.333-10.667-5.333z"></path>
</symbol>
</defs>
</svg>
