<svg aria-hidden="true" style="position: absolute; width: 0; height: 0; overflow: hidden;" version="1.1" xmlns="http://www.w3.org/2000/svg" xmlns:xlink="http://www.w3.org/1999/xlink">
<defs>
<symbol id="icon-shopping_cart" viewBox="0 0 32 32">
<path d="M20.733 17.333c1 0 1.88-0.547 2.333-1.373l4.773-8.653c0.493-0.88-0.147-1.973-1.16-1.973h-19.733l-1.253-2.667h-4.36v2.667h2.667l4.8 10.12-1.8 3.253c-0.973 1.787 0.307 3.96 2.333 3.96h16v-2.667h-16l1.467-2.667h9.933zM8.213 8h16.2l-3.68 6.667h-9.36l-3.16-6.667zM9.333 24c-1.467 0-2.653 1.2-2.653 2.667s1.187 2.667 2.653 2.667 2.667-1.2 2.667-2.667-1.2-2.667-2.667-2.667zM22.667 24c-1.467 0-2.653 1.2-2.653 2.667s1.187 2.667 2.653 2.667 2.667-1.2 2.667-2.667-1.2-2.667-2.667-2.667z"></path>
</symbol>
<symbol id="icon-orders" viewBox="0 0 32 32">
<path d="M18.667 12h-5.333c-0.733 0-1.333-0.6-1.333-1.333v0c0-0.733 0.6-1.333 1.333-1.333h5.333c0.733 0 1.333 0.6 1.333 1.333v0c0 0.733-0.6 1.333-1.333 1.333z"></path>
<path d="M18.667 16h-5.333c-0.733 0-1.333-0.6-1.333-1.333v0c0-0.733 0.6-1.333 1.333-1.333h5.333c0.733 0 1.333 0.6 1.333 1.333v0c0 0.733-0.6 1.333-1.333 1.333z"></path>
<path d="M26 4.667l-2-2-2 2-2-2-2 2-2-2-2 2-2-2-2 2-2-2v18.667h-2.667c-0.733 0-1.333 0.6-1.333 1.333v2.667c0 2.213 1.787 4 4 4h16c2.213 0 4-1.787 4-4v-22.667l-2 2zM20 26.667h-12c-0.733 0-1.333-0.6-1.333-1.333v-1.333h13.333v2.667zM25.333 25.333c0 0.733-0.6 1.333-1.333 1.333s-1.333-0.6-1.333-1.333v-2.667c0-0.733-0.6-1.333-1.333-1.333h-10.667v-14.667h14.667v18.667z"></path>
<path d="M24 10.667c0 0.736-0.597 1.333-1.333 1.333s-1.333-0.597-1.333-1.333c0-0.736 0.597-1.333 1.333-1.333s1.333 0.597 1.333 1.333z"></path>
<path d="M24 14.667c0 0.736-0.597 1.333-1.333 1.333s-1.333-0.597-1.333-1.333c0-0.736 0.597-1.333 1.333-1.333s1.333 0.597 1.333 1.333z"></path>
</symbol>
<symbol id="icon-warning" viewBox="0 0 32 32">
<path d="M16 7.987l10.040 17.347h-20.080l10.040-17.347zM3.653 24c-1.027 1.773 0.253 4 2.307 4h20.080c2.053 0 3.333-2.227 2.307-4l-10.040-17.347c-1.027-1.773-3.587-1.773-4.613 0l-10.040 17.347zM14.667 14.667v2.667c0 0.733 0.6 1.333 1.333 1.333s1.333-0.6 1.333-1.333v-2.667c0-0.733-0.6-1.333-1.333-1.333s-1.333 0.6-1.333 1.333zM14.667 21.333h2.667v2.667h-2.667z"></path>
</symbol>
<symbol id="icon-done" viewBox="0 0 32 32">
<path d="M12 21.6l-5.6-5.6-1.867 1.867 7.467 7.467 16-16-1.867-1.867-14.133 14.133z"></path>
</symbol>
<symbol id="icon-clear" viewBox="0 0 32 32">
<path d="M25.333 8.547l-1.88-1.88-7.453 7.453-7.453-7.453-1.88 1.88 7.453 7.453-7.453 7.453 1.88 1.88 7.453-7.453 7.453 7.453 1.88-1.88-7.453-7.453 7.453-7.453z"></path>
</symbol>
<symbol id="icon-delete" viewBox="0 0 32 32">
<path d="M21.333 12v13.333h-10.667v-13.333h10.667zM19.333 4h-6.667l-1.333 1.333h-4.667v2.667h18.667v-2.667h-4.667l-1.333-1.333zM24 9.333h-16v16c0 1.467 1.2 2.667 2.667 2.667h10.667c1.467 0 2.667-1.2 2.667-2.667v-16z"></path>
</symbol>
<symbol id="icon-edit" viewBox="0 0 32 32">
<path d="M18.747 12.027l1.227 1.227-12.080 12.080h-1.227v-1.227l12.080-12.080zM23.547 4c-0.333 0-0.68 0.133-0.933 0.387l-2.44 2.44 5 5 2.44-2.44c0.52-0.52 0.52-1.36 0-1.88l-3.12-3.12c-0.267-0.267-0.6-0.387-0.947-0.387zM18.747 8.253l-14.747 14.747v5h5l14.747-14.747-5-5z"></path>
</symbol>
<symbol id="icon-notifications_outlined" viewBox="0 0 32 32">
<path d="M16 29.333c1.467 0 2.667-1.2 2.667-2.667h-5.333c0 1.467 1.2 2.667 2.667 2.667zM24 21.333v-6.667c0-4.093-2.173-7.52-6-8.427v-0.907c0-1.107-0.893-2-2-2s-2 0.893-2 2v0.907c-3.813 0.907-6 4.32-6 8.427v6.667l-2.667 2.667v1.333h21.333v-1.333l-2.667-2.667zM21.333 22.667h-10.667v-8c0-3.307 2.013-6 5.333-6s5.333 2.693 5.333 6v8z"></path>
</symbol>
<symbol id="icon-account" viewBox="0 0 32 32">
<path d="M16 2.667c-7.36 0-13.333 5.973-13.333 13.333s5.973 13.333 13.333 13.333 13.333-5.973 13.333-13.333-5.973-13.333-13.333-13.333zM9.427 24.373c0.573-1.2 4.067-2.373 6.573-2.373s6.013 1.173 6.573 2.373c-1.813 1.44-4.093 2.293-6.573 2.293s-4.76-0.853-6.573-2.293zM24.48 22.44c-1.907-2.32-6.533-3.107-8.48-3.107s-6.573 0.787-8.48 3.107c-1.36-1.787-2.187-4.013-2.187-6.44 0-5.88 4.787-10.667 10.667-10.667s10.667 4.787 10.667 10.667c0 2.427-0.827 4.653-2.187 6.44zM16 8c-2.587 0-4.667 2.080-4.667 4.667s2.080 4.667 4.667 4.667 4.667-2.080 4.667-4.667-2.080-4.667-4.667-4.667zM16 14.667c-1.107 0-2-0.893-2-2s0.893-2 2-2 2 0.893 2 2-0.893 2-2 2z"></path>
</symbol>
<symbol id="icon-palette" viewBox="0 0 32 32">
<path d="M16 29.333c-7.347 0-13.333-5.987-13.333-13.333s5.987-13.333 13.333-13.333 13.333 5.387 13.333 12c0 4.413-3.587 8-8 8h-2.36c-0.373 0-0.667 0.293-0.667 0.667 0 0.16 0.067 0.307 0.173 0.44 0.547 0.627 0.853 1.413 0.853 2.227 0 1.84-1.493 3.333-3.333 3.333zM16 5.333c-5.88 0-10.667 4.787-10.667 10.667s4.787 10.667 10.667 10.667c0.373 0 0.667-0.293 0.667-0.667 0-0.213-0.107-0.373-0.187-0.467-0.547-0.613-0.84-1.4-0.84-2.2 0-1.84 1.493-3.333 3.333-3.333h2.36c2.947 0 5.333-2.387 5.333-5.333 0-5.147-4.787-9.333-10.667-9.333z"></path>
<path d="M10.667 15.333c0 1.105-0.895 2-2 2s-2-0.895-2-2c0-1.105 0.895-2 2-2s2 0.895 2 2z"></path>
<path d="M14.667 10c0 1.105-0.895 2-2 2s-2-0.895-2-2c0-1.105 0.895-2 2-2s2 0.895 2 2z"></path>
<path d="M21.333 10c0 1.105-0.895 2-2 2s-2-0.895-2-2c0-1.105 0.895-2 2-2s2 0.895 2 2z"></path>
<path d="M25.333 15.333c0 1.105-0.895 2-2 2s-2-0.895-2-2c0-1.105 0.895-2 2-2s2 0.895 2 2z"></path>
</symbol>
<symbol id="icon-language" viewBox="0 0 32 32">
<path d="M15.987 2.667c-7.36 0-13.32 5.973-13.32 13.333s5.96 13.333 13.32 13.333c7.373 0 13.347-5.973 13.347-13.333s-5.973-13.333-13.347-13.333zM25.227 10.667h-3.933c-0.427-1.667-1.040-3.267-1.84-4.747 2.453 0.84 4.493 2.547 5.773 4.747zM16 5.387c1.107 1.6 1.973 3.373 2.547 5.28h-5.093c0.573-1.907 1.44-3.68 2.547-5.28zM5.68 18.667c-0.213-0.853-0.347-1.747-0.347-2.667s0.133-1.813 0.347-2.667h4.507c-0.107 0.88-0.187 1.76-0.187 2.667s0.080 1.787 0.187 2.667h-4.507zM6.773 21.333h3.933c0.427 1.667 1.040 3.267 1.84 4.747-2.453-0.84-4.493-2.533-5.773-4.747zM10.707 10.667h-3.933c1.28-2.213 3.32-3.907 5.773-4.747-0.8 1.48-1.413 3.080-1.84 4.747zM16 26.613c-1.107-1.6-1.973-3.373-2.547-5.28h5.093c-0.573 1.907-1.44 3.68-2.547 5.28zM19.12 18.667h-6.24c-0.12-0.88-0.213-1.76-0.213-2.667s0.093-1.8 0.213-2.667h6.24c0.12 0.867 0.213 1.76 0.213 2.667s-0.093 1.787-0.213 2.667zM19.453 26.080c0.8-1.48 1.413-3.080 1.84-4.747h3.933c-1.28 2.2-3.32 3.907-5.773 4.747zM21.813 18.667c0.107-0.88 0.187-1.76 0.187-2.667s-0.080-1.787-0.187-2.667h4.507c0.213 0.853 0.347 1.747 0.347 2.667s-0.133 1.813-0.347 2.667h-4.507z"></path>
</symbol>
<symbol id="icon-next" viewBox="0 0 32 32">
<path d="M19.053 7.613v0c-0.52 0.52-0.52 1.36 0 1.88l5.173 5.173h-20.227c-0.733 0-1.333 0.6-1.333 1.333v0c0 0.733 0.6 1.333 1.333 1.333h20.24l-5.173 5.173c-0.52 0.52-0.52 1.36 0 1.88v0c0.52 0.52 1.36 0.52 1.88 0l7.453-7.453c0.52-0.52 0.52-1.36 0-1.88l-7.467-7.44c-0.507-0.52-1.36-0.52-1.88 0z"></path>
</symbol>
<symbol id="icon-filter_alt" viewBox="0 0 32 32">
<path d="M5.667 7.48c3.093 3.973 7.667 9.853 7.667 9.853v6.667c0 1.467 1.2 2.667 2.667 2.667v0c1.467 0 2.667-1.2 2.667-2.667v-6.667c0 0 4.573-5.88 7.667-9.853 0.68-0.88 0.053-2.147-1.067-2.147h-18.547c-1.107 0-1.733 1.267-1.053 2.147z"></path>
</symbol>
<symbol id="icon-leaderboard" viewBox="0 0 32 32">
<path d="M8.667 28h-4.667c-0.733 0-1.333-0.6-1.333-1.333v-13.333c0-0.733 0.6-1.333 1.333-1.333h4.667c0.733 0 1.333 0.6 1.333 1.333v13.333c0 0.733-0.6 1.333-1.333 1.333zM18.333 4h-4.667c-0.733 0-1.333 0.6-1.333 1.333v21.333c0 0.733 0.6 1.333 1.333 1.333h4.667c0.733 0 1.333-0.6 1.333-1.333v-21.333c0-0.733-0.6-1.333-1.333-1.333zM28 14.667h-4.667c-0.733 0-1.333 0.6-1.333 1.333v10.667c0 0.733 0.6 1.333 1.333 1.333h4.667c0.733 0 1.333-0.6 1.333-1.333v-10.667c0-0.733-0.6-1.333-1.333-1.333z"></path>
</symbol>
<symbol id="icon-storefront" viewBox="0 0 32 32">
<path d="M29.2 10.52l-1.4-4.493c-0.293-1.2-1.333-2.027-2.547-2.027h-18.52c-1.2 0-2.253 0.84-2.533 2.027l-1.4 4.493c-0.613 2.627 1.133 4.147 1.2 4.227v10.587c0 1.467 1.2 2.667 2.667 2.667h18.667c1.467 0 2.667-1.2 2.667-2.667v-10.587c1.493-1.493 1.453-3.213 1.2-4.227zM17.333 6.667h2.613l0.72 4.693c0.12 0.947-0.52 1.973-1.707 1.973-0.893 0-1.627-0.787-1.627-1.747v-4.92zM8.587 11.813c-0.107 0.867-0.8 1.52-1.613 1.52-1.24 0-1.8-1.293-1.587-2.187l1.347-4.48h2.627l-0.773 5.147zM14.667 11.587c0 0.96-0.733 1.747-1.72 1.747-1 0-1.733-0.933-1.627-1.973l0.733-4.693h2.613v4.92zM25.027 13.333c-0.813 0-1.52-0.653-1.613-1.52l-0.773-5.147 2.573-0.013 1.4 4.493c0.213 0.893-0.333 2.187-1.587 2.187z"></path>
</symbol>
<symbol id="icon-groups" viewBox="0 0 32 32">
<path d="M16 17c2.173 0 4.093 0.52 5.653 1.2 1.44 0.64 2.347 2.080 2.347 3.64v0.827c0 0.733-0.6 1.333-1.333 1.333h-13.333c-0.733 0-1.333-0.6-1.333-1.333v-0.813c0-1.573 0.907-3.013 2.347-3.64 1.56-0.693 3.48-1.213 5.653-1.213zM5.333 17.333c1.467 0 2.667-1.2 2.667-2.667s-1.2-2.667-2.667-2.667-2.667 1.2-2.667 2.667c0 1.467 1.2 2.667 2.667 2.667zM6.84 18.8c-0.493-0.080-0.987-0.133-1.507-0.133-1.32 0-2.573 0.28-3.707 0.773-0.987 0.427-1.627 1.387-1.627 2.467v0.76c0 0.733 0.6 1.333 1.333 1.333h4.667v-2.147c0-1.107 0.307-2.147 0.84-3.053zM26.667 17.333c1.467 0 2.667-1.2 2.667-2.667s-1.2-2.667-2.667-2.667-2.667 1.2-2.667 2.667c0 1.467 1.2 2.667 2.667 2.667zM32 21.907c0-1.080-0.64-2.040-1.627-2.467-1.133-0.493-2.387-0.773-3.707-0.773-0.52 0-1.013 0.053-1.507 0.133 0.533 0.907 0.84 1.947 0.84 3.053v2.147h4.667c0.733 0 1.333-0.6 1.333-1.333v-0.76zM16 8c2.213 0 4 1.787 4 4s-1.787 4-4 4-4-1.787-4-4c0-2.213 1.787-4 4-4z"></path>
</symbol>
<symbol id="icon-dashboard" viewBox="0 0 32 32">
<path d="M5.333 17.333h8c0.733 0 1.333-0.6 1.333-1.333v-10.667c0-0.733-0.6-1.333-1.333-1.333h-8c-0.733 0-1.333 0.6-1.333 1.333v10.667c0 0.733 0.6 1.333 1.333 1.333zM5.333 28h8c0.733 0 1.333-0.6 1.333-1.333v-5.333c0-0.733-0.6-1.333-1.333-1.333h-8c-0.733 0-1.333 0.6-1.333 1.333v5.333c0 0.733 0.6 1.333 1.333 1.333zM18.667 28h8c0.733 0 1.333-0.6 1.333-1.333v-10.667c0-0.733-0.6-1.333-1.333-1.333h-8c-0.733 0-1.333 0.6-1.333 1.333v10.667c0 0.733 0.6 1.333 1.333 1.333zM17.333 5.333v5.333c0 0.733 0.6 1.333 1.333 1.333h8c0.733 0 1.333-0.6 1.333-1.333v-5.333c0-0.733-0.6-1.333-1.333-1.333h-8c-0.733 0-1.333 0.6-1.333 1.333z"></path>
</symbol>
<symbol id="icon-lock" viewBox="0 0 32 32">
<path d="M24 10.667h-1.333v-2.667c0-3.68-2.987-6.667-6.667-6.667s-6.667 2.987-6.667 6.667v2.667h-1.333c-1.467 0-2.667 1.2-2.667 2.667v13.333c0 1.467 1.2 2.667 2.667 2.667h16c1.467 0 2.667-1.2 2.667-2.667v-13.333c0-1.467-1.2-2.667-2.667-2.667zM16 22.667c-1.467 0-2.667-1.2-2.667-2.667s1.2-2.667 2.667-2.667 2.667 1.2 2.667 2.667-1.2 2.667-2.667 2.667zM12 10.667v-2.667c0-2.213 1.787-4 4-4s4 1.787 4 4v2.667h-8z"></path>
</symbol>
<symbol id="icon-back" viewBox="0 0 32 32">
<path d="M12.933 24.4v0c0.52-0.52 0.52-1.36 0-1.88l-5.16-5.187h20.227c0.733 0 1.333-0.6 1.333-1.333v0c0-0.733-0.6-1.333-1.333-1.333h-20.227l5.173-5.173c0.52-0.52 0.52-1.36 0-1.88v0c-0.52-0.52-1.36-0.52-1.88 0l-7.467 7.453c-0.52 0.52-0.52 1.36 0 1.88l7.453 7.453c0.52 0.507 1.373 0.507 1.88 0z"></path>
</symbol>
<symbol id="icon-pending_actions" viewBox="0 0 32 32">
<path d="M24 4h-4.24c-0.56-1.547-2.027-2.667-3.76-2.667s-3.2 1.12-3.76 2.667h-4.24c-1.467 0-2.667 1.2-2.667 2.667v20c0 1.467 1.2 2.667 2.667 2.667h8.147c-0.787-0.76-1.427-1.667-1.893-2.667h-6.253v-20h2.667v1.333c0 1.467 1.2 2.667 2.667 2.667h5.333c1.467 0 2.667-1.2 2.667-2.667v-1.333h2.667v6.773c0.947 0.133 1.84 0.413 2.667 0.8v-7.573c0-1.467-1.2-2.667-2.667-2.667zM16 6.667c-0.733 0-1.333-0.6-1.333-1.333s0.6-1.333 1.333-1.333c0.733 0 1.333 0.6 1.333 1.333s-0.6 1.333-1.333 1.333zM22.667 16c-3.68 0-6.667 2.987-6.667 6.667s2.987 6.667 6.667 6.667c3.68 0 6.667-2.987 6.667-6.667s-2.987-6.667-6.667-6.667zM24.387 25.333l-2.2-2.2c-0.12-0.12-0.2-0.293-0.2-0.467v-3.32c0-0.373 0.293-0.667 0.667-0.667v0c0.373 0 0.667 0.293 0.667 0.667v3.053l2 2c0.267 0.267 0.267 0.68 0 0.947v0c-0.253 0.253-0.667 0.253-0.933-0.013z"></path>
</symbol>
<symbol id="icon-notifications" viewBox="0 0 32 32">
<path d="M16 29.333c1.467 0 2.667-1.2 2.667-2.667h-5.333c0 1.467 1.187 2.667 2.667 2.667zM24 21.333v-6.667c0-4.093-2.187-7.52-6-8.427v-0.907c0-1.107-0.893-2-2-2s-2 0.893-2 2v0.907c-3.827 0.907-6 4.32-6 8.427v6.667l-1.72 1.72c-0.84 0.84-0.253 2.28 0.933 2.28h17.56c1.187 0 1.787-1.44 0.947-2.28l-1.72-1.72z"></path>
</symbol>
<symbol id="icon-business" viewBox="0 0 32 32">
<path d="M16 9.333v-2.667c0-1.467-1.2-2.667-2.667-2.667h-8c-1.467 0-2.667 1.2-2.667 2.667v18.667c0 1.467 1.2 2.667 2.667 2.667h21.333c1.467 0 2.667-1.2 2.667-2.667v-13.333c0-1.467-1.2-2.667-2.667-2.667h-10.667zM8 25.333h-2.667v-2.667h2.667v2.667zM8 20h-2.667v-2.667h2.667v2.667zM8 14.667h-2.667v-2.667h2.667v2.667zM8 9.333h-2.667v-2.667h2.667v2.667zM13.333 25.333h-2.667v-2.667h2.667v2.667zM13.333 20h-2.667v-2.667h2.667v2.667zM13.333 14.667h-2.667v-2.667h2.667v2.667zM13.333 9.333h-2.667v-2.667h2.667v2.667zM25.333 25.333h-9.333v-2.667h2.667v-2.667h-2.667v-2.667h2.667v-2.667h-2.667v-2.667h9.333c0.733 0 1.333 0.6 1.333 1.333v10.667c0 0.733-0.6 1.333-1.333 1.333zM24 14.667h-2.667v2.667h2.667v-2.667zM24 20h-2.667v2.667h2.667v-2.667z"></path>
</symbol>
<symbol id="icon-calendar_today" viewBox="0 0 32 32">
<path d="M26.667 4h-1.333v-1.333c0-0.733-0.6-1.333-1.333-1.333s-1.333 0.6-1.333 1.333v1.333h-13.333v-1.333c0-0.733-0.6-1.333-1.333-1.333s-1.333 0.6-1.333 1.333v1.333h-1.333c-1.467 0-2.667 1.2-2.667 2.667v21.333c0 1.467 1.2 2.667 2.667 2.667h21.333c1.467 0 2.667-1.2 2.667-2.667v-21.333c0-1.467-1.2-2.667-2.667-2.667zM25.333 28h-18.667c-0.733 0-1.333-0.6-1.333-1.333v-16h21.333v16c0 0.733-0.6 1.333-1.333 1.333z"></path>
</symbol>
<symbol id="icon-visibility" viewBox="0 0 32 32">
<path d="M16 5.333c-6.667 0-12.36 4.147-14.667 10 2.307 5.853 8 10 14.667 10s12.36-4.147 14.667-10c-2.307-5.853-8-10-14.667-10zM16 22c-3.68 0-6.667-2.987-6.667-6.667s2.987-6.667 6.667-6.667 6.667 2.987 6.667 6.667-2.987 6.667-6.667 6.667zM16 11.333c-2.213 0-4 1.787-4 4s1.787 4 4 4 4-1.787 4-4-1.787-4-4-4z"></path>
</symbol>
<symbol id="icon-visibility_off" viewBox="0 0 32 32">
<path d="M16 8.667c3.68 0 6.667 2.987 6.667 6.667 0 0.68-0.133 1.333-0.32 1.947l4.080 4.080c1.853-1.64 3.32-3.693 4.24-6.040-2.307-5.84-8-9.987-14.667-9.987-1.693 0-3.32 0.267-4.853 0.76l2.893 2.893c0.627-0.187 1.28-0.32 1.96-0.32zM3.613 4.213c-0.52 0.52-0.52 1.36 0 1.88l2.627 2.627c-2.16 1.72-3.88 3.987-4.907 6.613 2.307 5.853 8 10 14.667 10 2.027 0 3.96-0.4 5.747-1.093l3.627 3.627c0.52 0.52 1.36 0.52 1.88 0s0.52-1.36 0-1.88l-21.747-21.773c-0.52-0.52-1.373-0.52-1.893 0zM16 22c-3.68 0-6.667-2.987-6.667-6.667 0-1.027 0.24-2 0.653-2.853l2.093 2.093c-0.040 0.24-0.080 0.493-0.080 0.76 0 2.213 1.787 4 4 4 0.267 0 0.507-0.040 0.76-0.093l2.093 2.093c-0.867 0.427-1.827 0.667-2.853 0.667zM19.96 14.893c-0.2-1.867-1.667-3.32-3.52-3.52l3.52 3.52z"></path>
</symbol>
<symbol id="icon-logout" viewBox="0 0 32 32">
<path d="M6.667 6.667h8c0.733 0 1.333-0.6 1.333-1.333v0c0-0.733-0.6-1.333-1.333-1.333h-8c-1.467 0-2.667 1.2-2.667 2.667v18.667c0 1.467 1.2 2.667 2.667 2.667h8c0.733 0 1.333-0.6 1.333-1.333v0c0-0.733-0.6-1.333-1.333-1.333h-8v-18.667z"></path>
<path d="M27.533 15.533l-3.72-3.72c-0.427-0.427-1.147-0.133-1.147 0.467v2.387h-9.333c-0.733 0-1.333 0.6-1.333 1.333v0c0 0.733 0.6 1.333 1.333 1.333h9.333v2.387c0 0.6 0.72 0.893 1.133 0.467l3.72-3.72c0.267-0.253 0.267-0.68 0.013-0.933z"></path>
</symbol>
<symbol id="icon-search" viewBox="0 0 32 32">
<path d="M20.667 18.667h-1.053l-0.373-0.36c1.6-1.867 2.427-4.413 1.973-7.12-0.627-3.707-3.72-6.667-7.453-7.12-5.64-0.693-10.387 4.053-9.693 9.693 0.453 3.733 3.413 6.827 7.12 7.453 2.707 0.453 5.253-0.373 7.12-1.973l0.36 0.373v1.053l5.667 5.667c0.547 0.547 1.44 0.547 1.987 0s0.547-1.44 0-1.987l-5.653-5.68zM12.667 18.667c-3.32 0-6-2.68-6-6s2.68-6 6-6 6 2.68 6 6-2.68 6-6 6z"></path>
</symbol>
<symbol id="icon-settings" viewBox="0 0 32 32">
<path d="M26 16c0-0.307-0.013-0.6-0.040-0.907l2.48-1.88c0.533-0.4 0.68-1.147 0.347-1.733l-2.493-4.307c-0.333-0.587-1.053-0.827-1.667-0.56l-2.867 1.213c-0.493-0.347-1.013-0.653-1.56-0.907l-0.387-3.080c-0.080-0.667-0.653-1.173-1.32-1.173h-4.973c-0.68 0-1.253 0.507-1.333 1.173l-0.387 3.080c-0.547 0.253-1.067 0.56-1.56 0.907l-2.867-1.213c-0.613-0.267-1.333-0.027-1.667 0.56l-2.493 4.32c-0.333 0.587-0.187 1.32 0.347 1.733l2.48 1.88c-0.027 0.293-0.040 0.587-0.040 0.893s0.013 0.6 0.040 0.907l-2.48 1.88c-0.533 0.4-0.68 1.147-0.347 1.733l2.493 4.307c0.333 0.587 1.053 0.827 1.667 0.56l2.867-1.213c0.493 0.347 1.013 0.653 1.56 0.907l0.387 3.080c0.080 0.667 0.653 1.173 1.32 1.173h4.973c0.667 0 1.24-0.507 1.32-1.173l0.387-3.080c0.547-0.253 1.067-0.56 1.56-0.907l2.867 1.213c0.613 0.267 1.333 0.027 1.667-0.56l2.493-4.307c0.333-0.587 0.187-1.32-0.347-1.733l-2.48-1.88c0.040-0.307 0.053-0.6 0.053-0.907zM16.053 20.667c-2.573 0-4.667-2.093-4.667-4.667s2.093-4.667 4.667-4.667 4.667 2.093 4.667 4.667-2.093 4.667-4.667 4.667z"></path>
</symbol>
<symbol id="icon-home" viewBox="0 0 32 32">
<path d="M13.333 25.333v-6.667h5.333v6.667c0 0.733 0.6 1.333 1.333 1.333h4c0.733 0 1.333-0.6 1.333-1.333v-9.333h2.267c0.613 0 0.907-0.76 0.44-1.16l-11.147-10.040c-0.507-0.453-1.28-0.453-1.787 0l-11.147 10.040c-0.453 0.4-0.173 1.16 0.44 1.16h2.267v9.333c0 0.733 0.6 1.333 1.333 1.333h4c0.733 0 1.333-0.6 1.333-1.333z"></path>
</symbol>
<symbol id="icon-work" viewBox="0 0 32 32">
<path d="M26.667 8h-5.333v-2.667c0-1.48-1.187-2.667-2.667-2.667h-5.333c-1.48 0-2.667 1.187-2.667 2.667v2.667h-5.333c-1.48 0-2.653 1.187-2.653 2.667l-0.013 14.667c0 1.48 1.187 2.667 2.667 2.667h21.333c1.48 0 2.667-1.187 2.667-2.667v-14.667c0-1.48-1.187-2.667-2.667-2.667zM18.667 8h-5.333v-2.667h5.333v2.667z"></path>
</symbol>
<symbol id="icon-person" viewBox="0 0 32 32">
<path d="M16 16c2.947 0 5.333-2.387 5.333-5.333s-2.387-5.333-5.333-5.333-5.333 2.387-5.333 5.333 2.387 5.333 5.333 5.333zM16 18.667c-3.56 0-10.667 1.787-10.667 5.333v1.333c0 0.733 0.6 1.333 1.333 1.333h18.667c0.733 0 1.333-0.6 1.333-1.333v-1.333c0-3.547-7.107-5.333-10.667-5.333z"></path>
</symbol>
</defs>
</svg>
